<svg width="12" height="12" viewBox="0 0 12 12" fill="none" xmlns="http://www.w3.org/2000/svg">
<path fill-rule="evenodd" clip-rule="evenodd" d="M0.351472 0.351472C0.820101 -0.117157 1.5799 -0.117157 2.04853 0.351472L6 4.30294L9.95147 0.351472C10.4201 -0.117157 11.1799 -0.117157 11.6485 0.351472C12.1172 0.820101 12.1172 1.5799 11.6485 2.04853L7.69706 6L11.6485 9.95147C12.1172 10.4201 12.1172 11.1799 11.6485 11.6485C11.1799 12.1172 10.4201 12.1172 9.95147 11.6485L6 7.69706L2.04853 11.6485C1.5799 12.1172 0.820101 12.1172 0.351472 11.6485C-0.117157 11.1799 -0.117157 10.4201 0.351472 9.95147L4.30294 6L0.351472 2.04853C-0.117157 1.5799 -0.117157 0.820101 0.351472 0.351472Z" fill="#818181"/>
</svg>
