<svg width="21" height="16" viewBox="0 0 21 16" fill="none" xmlns="http://www.w3.org/2000/svg">
<path d="M13.17 0.0391945C12.6387 -0.113942 12.0855 0.195457 11.9324 0.726748L7.93204 14.7278C7.77891 15.2591 8.08831 15.8123 8.6196 15.9654C9.15089 16.1186 9.70406 15.8092 9.85719 15.2779L13.8575 1.27679C14.0106 0.7455 13.7012 0.192331 13.17 0.0391945ZM15.6889 3.79261C15.2982 4.18327 15.2982 4.81769 15.6889 5.20835L18.4797 8.00232L15.6858 10.7963C15.2951 11.1869 15.2951 11.8214 15.6858 12.212C16.0764 12.6027 16.7109 12.6027 17.1015 12.212L20.6018 8.71175C20.9924 8.32109 20.9924 7.68667 20.6018 7.29601L17.1015 3.79574C16.7109 3.40508 16.0764 3.40508 15.6858 3.79574L15.6889 3.79261ZM6.10378 3.79261C5.71312 3.40196 5.0787 3.40196 4.68804 3.79261L1.18777 7.29289C0.797112 7.68354 0.797112 8.31797 1.18777 8.70862L4.68804 12.2089C5.0787 12.5996 5.71312 12.5996 6.10378 12.2089C6.49443 11.8182 6.49443 11.1838 6.10378 10.7932L3.30981 8.00232L6.10378 5.20835C6.49443 4.81769 6.49443 4.18327 6.10378 3.79261Z" fill="#818181"/>
</svg>
