<svg width="20" height="20" viewBox="0 0 20 20" fill="none" xmlns="http://www.w3.org/2000/svg">
<path d="M9.11964 20H10.8804C11.378 20 11.7416 19.7033 11.8469 19.2153L12.3445 17.11C12.7177 16.9857 13.0813 16.8421 13.3971 16.689L15.244 17.8182C15.6555 18.0765 16.1244 18.0382 16.4689 17.6938L17.7034 16.4689C18.0479 16.1244 18.0957 15.6268 17.8182 15.2153L16.689 13.3875C16.8517 13.0526 16.9952 12.7081 17.1005 12.3636L19.2249 11.8564C19.7129 11.7512 20 11.3875 20 10.8899V9.15785C20 8.66986 19.7129 8.30624 19.2249 8.20098L17.1196 7.69378C16.9952 7.30143 16.8421 6.94736 16.7081 6.65071L17.8374 4.79425C18.1053 4.38277 18.0765 3.91387 17.7225 3.56937L16.4689 2.33493C16.1148 2.00957 15.6938 1.95215 15.2727 2.19138L13.3971 3.34928C13.0909 3.1866 12.7369 3.04306 12.3445 2.91866L11.8469 0.784689C11.7416 0.29665 11.378 0 10.8804 0H9.11964C8.62201 0 8.25838 0.29665 8.14354 0.784689L7.64593 2.89952C7.27272 3.02392 6.90909 3.16747 6.58373 3.33971L4.72727 2.19138C4.30622 1.95215 3.87559 2 3.52153 2.33493L2.27751 3.56937C1.92345 3.91387 1.88516 4.38277 2.16268 4.79425L3.28229 6.65071C3.15789 6.94736 3.00479 7.30143 2.88038 7.69378L0.775119 8.20098C0.287081 8.30624 0 8.66986 0 9.15785V10.8899C0 11.3875 0.287081 11.7512 0.775119 11.8564L2.89952 12.3636C3.00479 12.7081 3.14832 13.0526 3.30143 13.3875L2.18182 15.2153C1.89473 15.6268 1.95215 16.1244 2.29665 16.4689L3.52153 17.6938C3.86603 18.0382 4.34449 18.0765 4.75598 17.8182L6.5933 16.689C6.91866 16.8421 7.27272 16.9857 7.64593 17.11L8.14354 19.2153C8.25838 19.7033 8.62201 20 9.11964 20ZM10 13.378C8.14354 13.378 6.62201 11.8469 6.62201 9.99045C6.62201 8.14354 8.14354 6.62201 10 6.62201C11.8564 6.62201 13.378 8.14354 13.378 9.99045C13.378 11.8469 11.8564 13.378 10 13.378Z" fill="#818181"/>
</svg>
