<svg width="21" height="15" viewBox="0 0 21 15" fill="none" xmlns="http://www.w3.org/2000/svg">
<path d="M4.33676 14.5502H17.4528C19.4867 14.5502 20.8948 13.1508 20.8948 11.1343C20.8948 9.1178 19.4867 7.70967 17.4528 7.70967H4.33676C2.30286 7.70967 0.894775 9.1178 0.894775 11.1343C0.894775 13.1508 2.30286 14.5502 4.33676 14.5502ZM4.33676 6.51891H17.4528C18.2699 6.51891 19.0174 6.70145 19.6606 7.03174L17.5832 2.01652C17.0443 0.704043 15.9057 0 14.4019 0H7.38762C5.88392 0 4.74528 0.704043 4.20638 2.01652L2.12033 7.03174C2.77222 6.70145 3.51972 6.51891 4.33676 6.51891ZM16.1925 11.1517C16.1925 10.552 16.714 10.0305 17.3224 10.0305C17.9222 10.0305 18.435 10.552 18.435 11.1517C18.435 11.7688 17.9222 12.2556 17.3224 12.2643C16.714 12.2643 16.1925 11.7775 16.1925 11.1517Z" fill="#818181"/>
</svg>
