<svg width="18" height="15" viewBox="0 0 18 15" fill="none" xmlns="http://www.w3.org/2000/svg">
<path d="M15.7979 0C16.6263 0 17.2979 0.671573 17.2979 1.5C17.2979 2.32843 16.6263 3 15.7979 3H1.5C0.671573 3 0 2.32843 0 1.5C0 0.671573 0.671573 0 1.5 0H15.7979Z" fill="#818181"/>
<path d="M15.7979 6C16.6263 6 17.2979 6.67157 17.2979 7.5C17.2979 8.32843 16.6263 9 15.7979 9H1.5C0.671573 9 0 8.32843 0 7.5C0 6.67157 0.671573 6 1.5 6H15.7979Z" fill="#818181"/>
<path d="M15.7979 12C16.6263 12 17.2979 12.6716 17.2979 13.5C17.2979 14.3284 16.6263 15 15.7979 15H1.5C0.671573 15 0 14.3284 0 13.5C0 12.6716 0.671573 12 1.5 12H15.7979Z" fill="#818181"/>
</svg>
