<svg width="12" height="12" viewBox="0 0 12 12" fill="none" xmlns="http://www.w3.org/2000/svg">
<path d="M11.9667 3.90545C12.0463 4.1094 11.9792 4.33678 11.8076 4.48213L10.7309 5.40574C10.7582 5.60031 10.7731 5.79957 10.7731 6.00117C10.7731 6.20277 10.7582 6.40203 10.7309 6.5966L11.8076 7.52022C11.9792 7.66556 12.0463 7.89295 11.9667 8.09689C11.8573 8.37585 11.7255 8.64309 11.5738 8.90096L11.457 9.09084C11.2929 9.3487 11.1088 9.5925 10.9074 9.82223C10.7607 9.99101 10.517 10.0473 10.2982 9.98164L8.91312 9.56671C8.57991 9.80817 8.21188 10.0098 7.81899 10.1621L7.50816 11.5007C7.45842 11.714 7.28436 11.8828 7.05559 11.918C6.71243 11.9719 6.35932 12 5.99876 12C5.63819 12 5.28509 11.9719 4.94193 11.918C4.71315 11.8828 4.53909 11.714 4.48936 11.5007L4.17852 10.1621C3.78563 10.0098 3.41761 9.80817 3.08439 9.56671L1.70181 9.98398C1.48299 10.0496 1.23929 9.99101 1.09258 9.82458C0.891162 9.59484 0.70715 9.35104 0.54303 9.09318L0.426157 8.9033C0.274471 8.64544 0.142678 8.3782 0.0332654 8.09924C-0.0463076 7.89529 0.0208321 7.6679 0.192411 7.52256L1.26913 6.59895C1.24178 6.40203 1.22686 6.20277 1.22686 6.00117C1.22686 5.79957 1.24178 5.60031 1.26913 5.40574L0.192411 4.48213C0.0208321 4.33678 -0.0463076 4.1094 0.0332654 3.90545C0.142678 3.62649 0.274471 3.35925 0.426157 3.10139L0.54303 2.91151C0.70715 2.65364 0.891162 2.40985 1.09258 2.18011C1.23929 2.01133 1.48299 1.95507 1.70181 2.02071L3.08688 2.43563C3.42009 2.19418 3.78812 1.99258 4.18101 1.8402L4.49184 0.50166C4.54157 0.288338 4.71564 0.119555 4.94441 0.0843915C5.28757 0.0281305 5.64068 0 6.00124 0C6.36181 0 6.71491 0.0281305 7.05807 0.0820473C7.28685 0.11721 7.46091 0.285993 7.51064 0.499316L7.82148 1.83786C8.21437 1.99023 8.58239 2.19183 8.91561 2.43329L10.3007 2.01836C10.5195 1.95273 10.7632 2.01133 10.9099 2.17777C11.1113 2.4075 11.2953 2.6513 11.4595 2.90916L11.5763 3.09904C11.728 3.35691 11.8598 3.62415 11.9692 3.90311L11.9667 3.90545ZM6.00124 7.87654C6.52885 7.87654 7.03484 7.67896 7.40791 7.32726C7.78098 6.97556 7.99057 6.49855 7.99057 6.00117C7.99057 5.50379 7.78098 5.02679 7.40791 4.67509C7.03484 4.32339 6.52885 4.12581 6.00124 4.12581C5.47364 4.12581 4.96765 4.32339 4.59458 4.67509C4.22151 5.02679 4.01192 5.50379 4.01192 6.00117C4.01192 6.49855 4.22151 6.97556 4.59458 7.32726C4.96765 7.67896 5.47364 7.87654 6.00124 7.87654Z" fill="#818181"/>
</svg>
