<svg width="18" height="20" viewBox="0 0 18 20" fill="none" xmlns="http://www.w3.org/2000/svg">
<path d="M5.11278 0C5.81978 0 6.39098 0.558594 6.39098 1.25V2.5H11.5038V1.25C11.5038 0.558594 12.075 0 12.782 0C13.489 0 14.0602 0.558594 14.0602 1.25V2.5H15.9774C17.0359 2.5 17.8947 3.33984 17.8947 4.375V6.25H0V4.375C0 3.33984 0.858788 2.5 1.91729 2.5H3.83459V1.25C3.83459 0.558594 4.40578 0 5.11278 0ZM0 7.5H17.8947V18.125C17.8947 19.1602 17.0359 20 15.9774 20H1.91729C0.858788 20 0 19.1602 0 18.125V7.5ZM2.55639 10.625V11.875C2.55639 12.2188 2.84398 12.5 3.19549 12.5H4.47368C4.82519 12.5 5.11278 12.2188 5.11278 11.875V10.625C5.11278 10.2812 4.82519 10 4.47368 10H3.19549C2.84398 10 2.55639 10.2812 2.55639 10.625ZM7.66917 10.625V11.875C7.66917 12.2188 7.95677 12.5 8.30827 12.5H9.58647C9.93797 12.5 10.2256 12.2188 10.2256 11.875V10.625C10.2256 10.2812 9.93797 10 9.58647 10H8.30827C7.95677 10 7.66917 10.2812 7.66917 10.625ZM13.4211 10C13.0695 10 12.782 10.2812 12.782 10.625V11.875C12.782 12.2188 13.0695 12.5 13.4211 12.5H14.6992C15.0508 12.5 15.3383 12.2188 15.3383 11.875V10.625C15.3383 10.2812 15.0508 10 14.6992 10H13.4211ZM2.55639 15.625V16.875C2.55639 17.2188 2.84398 17.5 3.19549 17.5H4.47368C4.82519 17.5 5.11278 17.2188 5.11278 16.875V15.625C5.11278 15.2812 4.82519 15 4.47368 15H3.19549C2.84398 15 2.55639 15.2812 2.55639 15.625ZM8.30827 15C7.95677 15 7.66917 15.2812 7.66917 15.625V16.875C7.66917 17.2188 7.95677 17.5 8.30827 17.5H9.58647C9.93797 17.5 10.2256 17.2188 10.2256 16.875V15.625C10.2256 15.2812 9.93797 15 9.58647 15H8.30827ZM12.782 15.625V16.875C12.782 17.2188 13.0695 17.5 13.4211 17.5H14.6992C15.0508 17.5 15.3383 17.2188 15.3383 16.875V15.625C15.3383 15.2812 15.0508 15 14.6992 15H13.4211C13.0695 15 12.782 15.2812 12.782 15.625Z" fill="#818181"/>
</svg>
