<svg width="105" height="105" viewBox="0 0 105 105" fill="none" xmlns="http://www.w3.org/2000/svg">
<path fill-rule="evenodd" clip-rule="evenodd" d="M52.0988 0C65.9162 5.82816e-05 79.1679 5.49223 88.9383 15.2669C98.7084 25.0416 104.197 38.2985 104.198 52.1218C104.198 65.9453 98.7087 79.2032 88.9383 88.9779C79.1679 98.7526 65.9162 104.244 52.0988 104.244C38.2814 104.244 25.0297 98.7526 15.2592 88.9779C5.48882 79.2032 0 65.9454 0 52.1218C6.74941e-05 38.2984 5.48902 25.0416 15.2592 15.2669C25.0297 5.49218 38.2813 0 52.0988 0ZM47.7768 20.0573C44.8817 20.0573 42.5348 22.4043 42.5347 25.2994V59.3809C42.5347 62.2761 44.8817 64.623 47.7768 64.623H83.174C86.0687 64.6226 88.4161 62.2758 88.4161 59.3809C88.4157 56.4864 86.0685 54.1392 83.174 54.1388H53.0189V25.2994C53.0189 22.4044 50.6718 20.0575 47.7768 20.0573Z" fill="url(#paint0_linear_2013_35)"/>
<defs>
<linearGradient id="paint0_linear_2013_35" x1="52.0988" y1="104.244" x2="52.0988" y2="6.21271e-07" gradientUnits="userSpaceOnUse">
<stop stop-color="white" stop-opacity="0.5"/>
<stop offset="0.463398" stop-color="white" stop-opacity="0.9"/>
</linearGradient>
</defs>
</svg>
